<svg xmlns="http://www.w3.org/2000/svg" width="390" height="844" viewBox="0 0 390 844" role="img" aria-label="Тихий ритм — 23 Окно остановлено"><title>23 Окно остановлено</title><rect x="0" y="0" width="390" height="844" rx="0" fill="#F5F3ED" stroke="none"/><text id="text-1" x="24" y="28" font-family="Arial, sans-serif" font-size="13" font-weight="700" fill="#233F38">9:41</text><text id="text-2" x="287" y="28" font-family="Arial, sans-serif" font-size="12" font-weight="400" fill="#233F38">LTE  ▰</text><text id="text-3" x="24" y="65" font-family="Arial, sans-serif" font-size="25" font-weight="400" fill="#233F38">‹</text><a href="#back" aria-label="Назад"><rect x="8" y="36" width="48" height="44" fill="transparent"/></a><text id="text-4" x="150" y="64" font-family="Arial, sans-serif" font-size="20" font-weight="700" fill="#233F38">рядом</text><text id="text-5" x="340" y="63" font-family="Arial, sans-serif" font-size="20" font-weight="400" fill="#233F38">···</text><path d="M0 80L390 80" stroke="#D8DED3" fill="none"/><text id="text-6" x="24" y="109" font-family="Arial, sans-serif" font-size="11" font-weight="700" fill="#5E6D65">ЛИНИЯ / АДМИНИСТРАТОР</text><a href="#entry" aria-label="Сменить кабинет"><rect x="20" y="80" width="350" height="44" fill="transparent"/></a><text id="text-7" x="24" y="154" font-family="Arial, sans-serif" font-size="28" font-weight="700" fill="#233F38">Окно остановлено</text><text id="text-8" x="24" y="180" font-family="Arial, sans-serif" font-size="13" font-weight="400" fill="#5E6D65">29 сентября · 14:00</text><rect x="24" y="223" width="342" height="106" rx="12" fill="#E4EBDD" stroke="none"/><text id="text-9" x="38" y="247" font-family="Arial, sans-serif" font-size="13" font-weight="400" fill="#233F38">Предложение кандидату 02 отозвано.</text><text id="text-10" x="38" y="268" font-family="Arial, sans-serif" font-size="13" font-weight="400" fill="#233F38">Кандидату 03 ничего не отправлено.</text><text id="text-11" x="38" y="289" font-family="Arial, sans-serif" font-size="13" font-weight="400" fill="#233F38">3 запроса ждут другие окна.</text><text id="text-12" x="38" y="310" font-family="Arial, sans-serif" font-size="13" font-weight="400" fill="#233F38">Время доступно в обычной записи.</text><rect x="24" y="563" width="342" height="48" rx="12" fill="#285D4E" stroke="none"/><text id="text-13" x="40" y="593" font-family="Arial, sans-serif" font-size="15" font-weight="700" fill="#FFFFFF">В календарь</text><a href="#calendar" aria-label="В календарь"><rect x="24" y="563" width="342" height="48" fill="transparent"/></a><rect x="0" y="758" width="390" height="86" rx="0" fill="#FFFFFF" stroke="none"/><path d="M0 758L390 758" stroke="#D8DED3" fill="none"/><text id="text-14" x="16" y="795" font-family="Arial, sans-serif" font-size="13" font-weight="400" fill="#5E6D65">День</text><a href="#calendar" aria-label="День"><rect x="0" y="764" width="97.5" height="52" fill="transparent"/></a><text id="text-15" x="113.5" y="795" font-family="Arial, sans-serif" font-size="13" font-weight="400" fill="#5E6D65">Окна</text><a href="#window" aria-label="Окна"><rect x="97.5" y="764" width="97.5" height="52" fill="transparent"/></a><text id="text-16" x="211" y="795" font-family="Arial, sans-serif" font-size="13" font-weight="400" fill="#5E6D65">Клиенты</text><a href="#crm" aria-label="Клиенты"><rect x="195" y="764" width="97.5" height="52" fill="transparent"/></a><text id="text-17" x="308.5" y="795" font-family="Arial, sans-serif" font-size="13" font-weight="400" fill="#5E6D65">Услуги</text><a href="#catalog" aria-label="Услуги"><rect x="292.5" y="764" width="97.5" height="52" fill="transparent"/></a><rect x="143" y="829" width="104" height="4" rx="2" fill="#233F38" stroke="none"/></svg>